<svg version="1.1" id="Primer_plano" xmlns="http://www.w3.org/2000/svg" x="0px" y="0px" viewBox="0 0 968.17 433.95" xml:space="preserve">
<style type="text/css">
  .st0{fill:#FBBA00;}
  .st1{fill:#869C0C;}
  .st2{fill:#EA573B;}
  .st3{fill:#006082;}
  .st4{fill-rule:evenodd;clip-rule:evenodd;fill:#006082;}
  .st5{fill:none;stroke:#FBBA00;stroke-width:3.7226;stroke-miterlimit:3.8637;}
  .st6{fill-rule:evenodd;clip-rule:evenodd;fill:#F9B215;stroke:#F9B215;stroke-width:0.7463;stroke-miterlimit:3.8637;}
</style>
<path class="st0" d="M75.93,218.48c0-70.24,59.13-125.31,125.16-125.17c57.04,0.12,108.7,41.41,122.71,100.39
  c-8.74,0.18-17.49,0.36-26.23,0.54c-13.11-44.69-53.01-75.14-96.48-75.22c-52.07-0.09-99.46,43.41-99.46,99.46
  c0,56.73,48.54,99.42,99.46,99.46c38.48,0.03,74.66-24.29,92.18-62.03c9.1,0.01,18.19,0.02,27.29,0.03
  c-19.13,52.67-67.44,87.66-119.46,87.71C136.2,343.71,75.93,289.39,75.93,218.48z"/>
<ellipse transform="matrix(0.9999 -0.0119 0.0119 0.9999 -3.3172 4.3042)" class="st0" cx="359.96" cy="280.84" rx="37.2" ry="37.2"/>
<ellipse transform="matrix(0.0162 -0.9999 0.9999 0.0162 -31.9397 653.2336)" class="st1" cx="315.99" cy="342.85" rx="27.06" ry="27.06"/>
<ellipse transform="matrix(0.0194 -0.9998 0.9998 0.0194 -119.744 625.2346)" class="st2" cx="258.87" cy="373.66" rx="27.06" ry="27.06"/>
<g>
  <path class="st3" d="M16.42,218.48C16.42,116.37,99.19,33.6,201.3,33.6c94.83,0,172.99,71.4,183.64,163.39h-38.29
    c-10.4-70.95-71.51-125.41-145.34-125.41c-81.13,0-146.9,65.77-146.9,146.91c0,81.14,65.77,146.91,146.9,146.91
    c7.35,0,14.58-0.54,21.64-1.58l0.93,38.19c-7.4,0.9-14.93,1.36-22.57,1.36C99.19,403.36,16.42,320.59,16.42,218.48z"/>
</g>
<g id="COCINA">
  <path class="st4" d="M520.24,163.35l4.45,3.94c-10.06,9.14-21.9,13.71-35.51,13.71c-14.63,0-27.09-5.14-37.37-15.42
    c-10.28-10.28-15.42-22.74-15.42-37.37c0-14.53,5.14-26.97,15.42-37.29c10.28-10.33,22.74-15.49,37.37-15.49
    c13.61,0,25.45,4.59,35.51,13.78l-4.45,3.94c-8.85-7.83-19.2-11.74-31.06-11.74c-12.93,0-23.98,4.57-33.14,13.71
    c-9.16,9.14-13.74,20.17-13.74,33.1c0,12.98,4.58,24.04,13.74,33.17c9.16,9.14,20.21,13.71,33.14,13.71
    C501.04,175.09,511.4,171.18,520.24,163.35z"/>
  <path class="st4" d="M586.67,75.2c14.63,0,27.11,5.16,37.44,15.49c10.33,10.33,15.49,22.79,15.49,37.37
    c0,14.63-5.16,27.11-15.49,37.44s-22.81,15.49-37.44,15.49c-14.58,0-27.04-5.16-37.37-15.49s-15.49-22.81-15.49-37.44
    c0-14.58,5.16-27.04,15.49-37.37C559.64,80.37,572.09,75.2,586.67,75.2z M586.67,81.11c-12.93,0-23.99,4.59-33.18,13.78
    c-9.19,9.19-13.78,20.24-13.78,33.17c0,12.98,4.59,24.06,13.78,33.25c9.19,9.19,20.25,13.78,33.18,13.78
    c12.98,0,24.06-4.59,33.25-13.78s13.78-20.27,13.78-33.25c0-12.93-4.59-23.99-13.78-33.17S599.65,81.11,586.67,81.11z"/>
  <path class="st4" d="M733.36,163.35l4.45,3.94c-10.06,9.14-21.9,13.71-35.51,13.71c-14.63,0-27.09-5.14-37.37-15.42
    c-10.28-10.28-15.42-22.74-15.42-37.37c0-14.53,5.14-26.97,15.42-37.29c10.28-10.33,22.74-15.49,37.37-15.49
    c13.61,0,25.45,4.59,35.51,13.78l-4.45,3.94c-8.85-7.83-19.2-11.74-31.06-11.74c-12.93,0-23.98,4.57-33.14,13.71
    c-9.16,9.14-13.74,20.17-13.74,33.1c0,12.98,4.58,24.04,13.74,33.17c9.16,9.14,20.21,13.71,33.14,13.71
    C714.16,175.09,724.51,171.18,733.36,163.35z"/>
  <rect x="751.3" y="76.66" class="st4" width="5.83" height="103.1"/>
  <polygon class="st4" points="781.2,76.66 849.74,172.68 849.74,76.66 855.57,76.66 855.57,179.76 846.6,179.76 779.67,85.99 779.67,179.76 773.84,179.76 773.84,76.66"/>
  <path class="st4" d="M920.04,128.65l-15.68-43.24l-15.75,43.24H920.04z M907.35,76.66l37.4,103.1h-6.12l-16.48-45.35H886.5
    l-16.77,45.35h-6.2l37.84-103.1H907.35z"/>
</g>
<g id="CENTER">
  <path class="st4" d="M557.95,264.33l3.97,3.51c-8.97,8.15-19.53,12.22-31.67,12.22c-13.05,0-24.16-4.58-33.33-13.75
    c-9.17-9.17-13.75-20.28-13.75-33.32c0-12.96,4.58-24.05,13.75-33.26c9.17-9.21,20.28-13.82,33.33-13.82
    c12.14,0,22.69,4.1,31.67,12.29l-3.97,3.51c-7.89-6.98-17.12-10.47-27.7-10.47c-11.53,0-21.38,4.07-29.55,12.22
    c-8.17,8.15-12.26,17.99-12.26,29.52c0,11.57,4.09,21.44,12.26,29.58c8.17,8.15,18.02,12.22,29.55,12.22
    C540.83,274.8,550.06,271.31,557.95,264.33z"/>
  <polygon class="st4" points="619.27,187.02 619.27,192.22 578.5,192.22 578.5,230.39 619.27,230.39 619.27,235.59 578.5,235.59 578.5,273.76 619.27,273.76 619.27,278.96 573.3,278.96 573.3,187.02"/>
  <polygon class="st4" points="640.18,187.02 701.3,272.66 701.3,187.02 706.5,187.02 706.5,278.96 698.51,278.96 638.81,195.35 638.81,278.96 633.61,278.96 633.61,187.02"/>
  <polygon class="st4" points="744.16,192.22 744.16,278.96 739.02,278.96 739.02,192.22 715.75,192.22 715.75,187.02 767.44,187.02 767.44,192.22"/>
  <polygon class="st4" points="822.77,187.02 822.77,192.22 782,192.22 782,230.39 822.77,230.39 822.77,235.59 782,235.59 782,273.76 822.77,273.76 822.77,278.96 776.8,278.96 776.8,187.02"/>
  <path class="st4" d="M842.51,192.29v49.54h15.61c6.81,0,12.64-2.42,17.49-7.25s7.28-10.7,7.28-17.59c0-6.85-2.43-12.68-7.28-17.49
    c-4.86-4.81-10.69-7.22-17.49-7.22H842.51z M859.67,247.1h-17.17v31.86h-5.2v-91.94h24.12c7.02,0.95,12.98,3.88,17.88,8.78
    c5.85,5.9,8.78,12.96,8.78,21.2c0,8.32-2.93,15.41-8.78,21.26c-4.08,4.08-8.74,6.74-13.98,8l21.2,32.71h-6.37L859.67,247.1z"/>
</g>
<g id="A_TU_MEDIDA">
  <path class="st4" d="M464.39,369.58h-6l-2.38-6.27h-11.05l-2.29,6.27h-5.9l10.69-27.53h5.89L464.39,369.58z M454.2,358.66l-3.83-10.19l-3.71,10.19H454.2z"/>
  <polygon class="st4" points="534.69,369.58 534.69,346.7 526.53,346.7 526.53,342.05 548.37,342.05 548.37,346.7 540.26,346.7 540.26,369.58"/>
  <path class="st4" d="M577.87,342.05h5.58v14.92c0,2.37,0.07,3.9,0.2,4.6c0.24,1.13,0.8,2.03,1.68,2.72c0.89,0.68,2.1,1.02,3.63,1.02
    c1.56,0,2.74-0.32,3.53-0.97c0.79-0.65,1.27-1.44,1.43-2.38c0.16-0.94,0.24-2.5,0.24-4.68v-15.24h5.58v14.48
    c0,3.31-0.15,5.65-0.45,7.01c-0.3,1.37-0.85,2.52-1.66,3.46c-0.8,0.94-1.88,1.69-3.23,2.25c-1.35,0.56-3.11,0.84-5.28,0.84
    c-2.62,0-4.61-0.3-5.96-0.91c-1.35-0.61-2.42-1.4-3.21-2.37c-0.79-0.97-1.3-1.99-1.55-3.05c-0.36-1.58-0.54-3.91-0.54-6.99V342.05z"/>
  <polygon class="st4" points="667.97,369.58 667.97,342.05 676.31,342.05 681.25,360.83 686.13,342.05 694.5,342.05 694.5,369.58 689.34,369.58 689.32,347.91 683.9,369.58 678.54,369.58 673.14,347.91 673.12,369.58"/>
  <polygon class="st4" points="725.98,369.58 725.98,342.05 746.35,342.05 746.35,346.7 731.55,346.7 731.55,352.82 745.32,352.82 745.32,357.47 731.55,357.47 731.55,364.93 746.89,364.93 746.89,369.58"/>
  <path class="st4" d="M777.44,342.05h10.14c2.29,0,4.03,0.18,5.23,0.53c1.61,0.48,2.99,1.32,4.14,2.54c1.15,1.21,2.02,2.7,2.62,4.46
    c0.6,1.76,0.9,3.93,0.9,6.51c0,2.27-0.28,4.22-0.84,5.86c-0.69,2-1.67,3.62-2.94,4.86c-0.96,0.94-2.26,1.67-3.9,2.2
    c-1.22,0.39-2.86,0.58-4.91,0.58h-10.44V342.05z M783.02,346.7v18.22h4.13c1.55,0,2.66-0.09,3.35-0.26
    c0.9-0.23,1.64-0.61,2.24-1.15c0.59-0.54,1.08-1.42,1.45-2.66c0.37-1.23,0.56-2.91,0.56-5.04c0-2.13-0.19-3.76-0.56-4.9
    c-0.37-1.14-0.9-2.03-1.57-2.67c-0.67-0.64-1.53-1.07-2.56-1.3c-0.77-0.17-2.29-0.26-4.54-0.26H783.02z"/>
  <rect x="830.9" y="342.05" class="st4" width="5.58" height="27.53"/>
  <path class="st4" d="M867.62,342.05h10.14c2.29,0,4.03,0.18,5.23,0.53c1.61,0.48,2.99,1.32,4.14,2.54c1.15,1.21,2.02,2.7,2.62,4.46
    c0.6,1.76,0.9,3.93,0.9,6.51c0,2.27-0.28,4.22-0.84,5.86c-0.69,2-1.67,3.62-2.94,4.86c-0.96,0.94-2.26,1.67-3.9,2.2
    c-1.22,0.39-2.86,0.58-4.91,0.58h-10.44V342.05z M873.2,346.7v18.22h4.13c1.55,0,2.66-0.09,3.35-0.26
    c0.9-0.23,1.64-0.61,2.23-1.15c0.59-0.54,1.08-1.42,1.45-2.66c0.37-1.23,0.56-2.91,0.56-5.04c0-2.13-0.19-3.76-0.56-4.9
    c-0.37-1.14-0.9-2.03-1.57-2.67c-0.67-0.64-1.53-1.07-2.56-1.3c-0.77-0.17-2.29-0.26-4.55-0.26H873.2z"/>
  <path class="st4" d="M946.07,369.58h-6l-2.38-6.27h-11.05l-2.29,6.27h-5.9l10.69-27.53h5.89L946.07,369.58z M935.88,358.66l-3.83-10.19l-3.71,10.19H935.88z"/>
</g>
<g>
  <path class="st5" d="M920.66,309.13v3.29h-44.05v18.17h-0.77v-18.17H512.21v18.06h-0.77v-18.06c-11.13,0-33.58,0-44.72,0v12.35
    h-28.97v-29.65h28.97v14h22.86H920.66z"/>
  <rect x="579.93" y="312.67" class="st5" width="0.77" height="18.28"/>
  <rect x="640.66" y="313.27" class="st5" width="0.77" height="18.28"/>
  <rect x="694.75" y="313.14" class="st5" width="0.77" height="18.28"/>
  <rect x="757.45" y="313.72" class="st5" width="0.77" height="18.28"/>
  <rect x="815.32" y="312.44" class="st5" width="0.77" height="18.28"/>
</g>
<polygon class="st6" points="944.75,310.28 933.59,320.73 922.42,331.18 922.42,324.18 925.77,321.05 936.94,310.6 925.77,300.15 922.42,297.01 922.42,289.38 933.59,299.83"/>
</svg>
